<?xml version="1.0" encoding="utf-8"?>
<!-- Generator: Adobe Illustrator 27.5.0, SVG Export Plug-In . SVG Version: 6.00 Build 0)  -->
<svg version="1.2" baseProfile="tiny" id="Layer_1" xmlns="http://www.w3.org/2000/svg" xmlns:xlink="http://www.w3.org/1999/xlink"
	 x="0px" y="0px" viewBox="0 0 500 500" overflow="visible" xml:space="preserve">
<g>
	<path fill="#fff" d="M315.85,386.72v-12.08c34.79-3.45,36.52-6.33,35.94-50.61l-1.44-168.78h-1.73L243.39,384.14h-8.63l-96.9-223.13h-1.15
		l-6.33,118.18c-1.73,34.79-1.73,52.62-0.86,69.3c0.86,19.84,10.93,22.72,39.39,25.59v12.65H67.99v-12.65
		c24.73-2.3,33.07-8.34,36.52-25.02c2.3-14.66,4.89-32.78,8.34-77.92l6.33-84.54c3.74-54.63,1.15-56.93-37.38-60.67v-12.65h73.32
		l97.48,206.74l98.91-206.74h75.33v12.65c-37.67,3.16-40.26,4.6-38.82,46.29l4.03,151.82c1.44,44.28,2.59,47.16,39.97,50.61v12.08
		H315.85z"/>
</g>
</svg>
