<?xml version="1.0" encoding="utf-8"?>
<!-- Generator: Adobe Illustrator 27.5.0, SVG Export Plug-In . SVG Version: 6.00 Build 0)  -->
<svg version="1.1" id="Layer_1" xmlns="http://www.w3.org/2000/svg" xmlns:xlink="http://www.w3.org/1999/xlink" x="0px" y="0px"
	 viewBox="0 0 500 500" style="enable-background:new 0 0 500 500;" xml:space="preserve">
<style type="text/css">
	.st0 {
		fill : #f1f1f1;
	}
</style>
<path class= 'st0' d="M376.43,135.9h-84.5l-16.99,55.5c-7.88,25.77-13.1,48.31-15.57,67.66h-1.42c-1.66-15.48-5.85-35.1-12.61-58.79
	c-1.15-3.74-1.93-6.37-2.32-7.94l-16.24-56.43h-84.62L103.2,364.1h67.03l26.71-130.7c0.03-0.51,0.06-1,0.09-1.48l0.09,0.54v0.03
	c1.75,12.46,5.19,27.04,10.2,43.85l11.8,39.59l14.36,48.16h48.8l14.33-47.98v-0.03l11.86-39.74c4.92-16.57,8.3-30.99,10.11-43.34
	c0.09-0.36,0.12-0.72,0.18-1.09c0.03,0.33,0.06,0.69,0.06,1.03h0.09l26.74,131.15h66.93L376.43,135.9z M194.95,151.87l-0.07,5.83
	l-0.02,1.37l-1.19,0.67l-13.8,7.75l-20.59,11.56l20.31,12.05l13.61,8.08l1.18,0.7l-0.02,1.37l-0.07,6.07l-0.05,4.11l-3.53-2.1
	l-23.84-14.15l-23.84-14.15l-3.53-2.1l3.58-2.01l24.17-13.57l24.17-13.57l3.58-2.01L194.95,151.87z M378.37,346.84l-22.47,13.33
	l-3.33,1.98l-0.05-3.87l-0.07-5.72l-0.02-1.29l1.11-0.66l12.82-7.61l19.13-11.35l-19.4-10.89l-13-7.3l-1.13-0.63l-0.02-1.29
	l-0.07-5.49l-0.05-3.87l3.38,1.9l22.78,12.79l22.78,12.79l3.38,1.9l-3.33,1.98L378.37,346.84z"/>
</svg>
